<?xml version="1.0" standalone="no"?>
<!DOCTYPE svg PUBLIC "-//W3C//DTD SVG 20010904//EN"
 "http://www.w3.org/TR/2001/REC-SVG-20010904/DTD/svg10.dtd">
<svg version="1.0" xmlns="http://www.w3.org/2000/svg"
 width="500.000000pt" height="500.000000pt" viewBox="0 0 500.000000 500.000000"
 preserveAspectRatio="xMidYMid meet">

<g transform="translate(0.000000,500.000000) scale(0.100000,-0.100000)"
fill="#000000" stroke="none">
<path d="M2321 3780 c-154 -20 -332 -79 -456 -152 -81 -47 -208 -139 -202
-145 3 -2 23 4 46 13 23 9 53 14 67 11 18 -3 47 9 102 42 93 56 210 103 329
133 74 19 116 22 268 23 163 0 190 -3 281 -27 438 -114 780 -470 864 -898 l13
-65 34 33 35 32 -26 91 c-70 244 -196 448 -371 601 -179 156 -360 246 -588
293 -97 19 -297 27 -396 15z"/>
<path d="M1744 3450 c-5 -5 -59 -17 -119 -25 -275 -39 -620 -139 -695 -202
-34 -28 -39 -61 -12 -91 9 -10 79 -65 154 -120 156 -115 196 -152 260 -243
124 -174 191 -398 192 -645 l1 -121 27 1 c16 1 28 2 28 3 0 26 47 434 65 564
25 183 131 794 141 810 16 27 391 -5 543 -46 57 -15 71 -13 71 10 0 16 -62 40
-155 59 -100 20 -329 45 -400 43 -33 -1 -67 2 -75 6 -9 4 -20 3 -26 -3z m-28
-92 c-38 -140 -107 -557 -142 -858 -9 -80 -18 -152 -21 -160 -3 -8 -15 30 -28
85 -59 254 -184 440 -405 600 -139 100 -181 135 -175 146 13 20 88 50 221 89
163 48 454 112 538 119 14 1 17 -4 12 -21z"/>
<path d="M1527 3297 c-41 -8 -54 -16 -83 -56 -39 -52 -144 -257 -144 -281 0
-9 13 -28 28 -43 l29 -28 12 40 c20 68 107 233 161 305 28 38 50 69 48 70 -2
1 -25 -2 -51 -7z"/>
<path d="M3286 3002 c-15 -24 -49 -191 -58 -288 l-11 -113 -46 -32 c-25 -18
-69 -49 -96 -70 l-51 -38 -62 58 c-34 32 -62 66 -62 75 0 28 20 56 46 67 31
11 29 43 -3 47 -30 4 -91 -52 -103 -97 -16 -61 -96 -124 -143 -113 -24 5 -46
51 -53 116 -11 91 -30 83 -103 -47 -36 -63 -47 -67 -37 -14 8 43 57 121 90
143 24 15 28 15 51 0 30 -20 45 -20 45 -1 0 25 -42 55 -76 55 -41 0 -85 -36
-121 -99 -40 -67 -108 -163 -131 -185 -49 -43 -80 2 -89 129 -9 134 -35 136
-119 11 -61 -91 -69 -82 -34 34 24 78 25 110 5 110 -17 0 -39 -40 -66 -118
-12 -35 -39 -77 -74 -118 -134 -152 -196 -130 -181 65 4 47 8 100 9 116 2 24
-2 30 -18 30 -30 0 -48 -49 -53 -140 -12 -233 112 -289 260 -116 l35 42 6 -31
c4 -17 14 -33 22 -36 23 -9 49 19 100 107 25 43 49 80 55 84 6 4 10 -12 10
-43 0 -66 26 -148 53 -167 35 -24 64 -18 111 25 l43 40 11 -25 c8 -18 20 -25
38 -25 30 0 43 14 79 83 14 26 27 47 30 47 2 0 13 -20 24 -44 38 -86 113 -97
193 -26 l45 39 56 -56 c31 -31 57 -59 57 -62 0 -3 -27 -37 -59 -75 -70 -80
-101 -140 -101 -195 0 -48 20 -71 63 -71 62 0 120 59 158 159 17 45 20 70 16
123 l-6 68 82 60 c45 33 85 60 88 60 4 0 4 -19 2 -42 -7 -58 14 -254 30 -286
9 -18 19 -26 32 -24 26 5 22 -3 50 95 28 95 89 245 109 265 11 11 14 0 19 -61
3 -42 10 -84 16 -95 27 -51 92 -30 144 47 l32 49 28 -24 c57 -49 152 -23 252
68 87 79 70 96 -23 24 -104 -80 -175 -99 -206 -54 -27 38 -19 54 39 87 77 44
111 117 64 141 -15 9 -28 9 -50 0 -38 -16 -97 -82 -104 -117 -18 -83 -81 -191
-119 -206 -19 -7 -22 4 -33 123 l-8 85 -30 0 c-27 0 -34 -7 -70 -75 -21 -41
-54 -113 -71 -160 -25 -64 -34 -80 -40 -66 -10 27 4 334 21 456 28 192 30 230
12 230 -9 0 -18 -4 -21 -8z m494 -311 c0 -11 -61 -71 -72 -71 -16 0 -7 19 23
49 30 31 49 39 49 22z m-793 -375 c-9 -89 -77 -196 -123 -196 -21 0 -17 54 7
105 19 41 103 145 116 145 3 0 3 -24 0 -54z"/>
<path d="M1808 2924 c-14 -31 -1 -57 30 -62 28 -4 45 28 32 62 -13 34 -47 34
-62 0z"/>
<path d="M1243 2754 c-13 -64 -9 -362 6 -439 20 -100 64 -231 107 -317 20 -40
38 -74 39 -76 2 -2 16 4 32 14 15 10 29 19 31 20 2 1 -6 17 -17 35 -31 54 -80
182 -101 267 -25 101 -42 287 -34 379 6 69 5 73 -24 113 l-31 42 -8 -38z"/>
<path d="M3641 2387 c-5 -18 -15 -59 -22 -92 -15 -78 -64 -217 -99 -282 l-28
-52 33 -20 33 -19 45 96 c50 106 94 245 103 327 6 51 6 52 -24 63 -29 10 -31
9 -41 -21z"/>
<path d="M1500 1924 c0 -3 4 -14 10 -24 8 -15 2 -24 -40 -55 -65 -48 -54 -65
13 -20 48 32 52 33 69 18 32 -29 30 -7 -3 41 -29 41 -49 57 -49 40z"/>
<path d="M3396 1871 c-9 -13 65 -142 76 -135 5 3 6 15 3 25 -9 29 20 69 50 69
38 0 30 18 -12 29 -74 19 -111 23 -117 12z m74 -34 c1 -4 -3 -15 -8 -23 -8
-14 -11 -13 -26 7 -9 13 -16 27 -16 30 0 10 49 -4 50 -14z"/>
<path d="M1647 1655 c-29 -33 -43 -56 -37 -60 6 -4 13 -5 14 -4 1 2 22 26 46
52 25 28 39 51 34 56 -5 5 -29 -14 -57 -44z"/>
<path d="M3228 1684 c-5 -4 -8 -20 -8 -35 0 -15 -3 -35 -6 -44 -6 -14 -9 -13
-30 6 -13 12 -27 20 -30 16 -6 -6 6 -23 68 -101 21 -27 35 -13 19 18 -19 35
-8 46 35 34 25 -6 40 -6 47 1 7 7 -5 14 -36 22 -44 11 -46 13 -49 51 -2 22 -6
36 -10 32z"/>
<path d="M1831 1516 c-17 -29 -31 -59 -31 -65 0 -23 17 -10 41 32 l24 42 8
-55 c11 -70 14 -80 25 -80 8 0 72 110 72 124 0 18 -21 1 -43 -36 l-25 -43 -7
68 c-9 83 -23 86 -64 13z"/>
<path d="M2967 1513 c-3 -5 10 -37 27 -72 42 -83 61 -64 20 20 -26 56 -37 68
-47 52z"/>
<path d="M2135 1378 c-10 -38 -15 -71 -13 -73 3 -3 25 -8 49 -11 113 -15 131
115 20 143 l-39 10 -17 -69z m93 20 c27 -23 3 -88 -33 -88 -23 0 -45 12 -45
24 0 6 5 28 11 49 9 33 13 37 32 31 12 -3 28 -11 35 -16z"/>
<path d="M2689 1423 c-14 -3 -14 -10 0 -73 10 -42 21 -70 29 -70 8 0 10 8 6
25 -5 22 -3 25 19 25 13 0 30 -7 37 -15 7 -8 19 -15 28 -15 12 0 11 5 -7 24
-14 15 -19 26 -12 31 15 8 14 48 -1 63 -11 11 -65 14 -99 5z m88 -29 c7 -19
-21 -44 -48 -44 -16 0 -33 43 -21 55 13 12 63 4 69 -11z"/>
<path d="M2460 1330 c0 -40 4 -70 10 -70 6 0 10 30 10 70 0 40 -4 70 -10 70
-6 0 -10 -30 -10 -70z"/>
</g>
</svg>
