<svg xml:space="preserve" viewBox="165.168 112.096 160.208 270.81600000000003" width="160.208" y="0px" x="0px" xmlns:xlink="http://www.w3.org/1999/xlink" xmlns="http://www.w3.org/2000/svg" id="Layer_1" version="1.1" style="max-height: 500px" height="270.81600000000003">
<path d="M390.357788,244.337585 &#10;&#9;C392.270111,242.695175 393.841522,241.192917 395.575165,239.909790 &#10;&#9;C396.533905,239.200165 397.835846,238.973663 398.719513,240.123428 &#10;&#9;C399.401794,241.011185 399.186432,242.144699 398.489197,242.904770 &#10;&#9;C391.965454,250.016403 384.823181,256.246735 374.637207,257.035248 &#10;&#9;C371.362732,257.288757 368.744080,255.032730 365.926605,252.860886 &#10;&#9;C363.431519,255.729538 361.182373,258.785522 358.463654,261.342102 &#10;&#9;C353.020508,266.460724 348.589142,264.959259 346.449860,257.786896 &#10;&#9;C345.336456,254.054123 346.126251,250.200439 345.013000,245.241684 &#10;&#9;C340.806305,252.906784 337.701050,259.898895 335.406219,267.260773 &#10;&#9;C334.366760,270.595337 333.473480,273.975525 332.515991,277.335571 &#10;&#9;C331.850311,279.671692 330.944427,282.025696 328.083405,281.980133 &#10;&#9;C325.163574,281.933655 324.361542,279.375946 323.882751,277.108398 &#10;&#9;C322.297516,269.600494 321.516571,261.995636 321.667999,254.307968 &#10;&#9;C321.706604,252.348587 321.673767,250.387833 321.673767,247.390060 &#10;&#9;C315.876465,250.650665 311.073730,253.753784 307.113190,257.961761 &#10;&#9;C305.188843,260.006287 306.386749,262.772064 306.517975,265.194458 &#10;&#9;C307.057190,275.145752 303.525421,283.484985 296.473724,290.305603 &#10;&#9;C292.282623,294.359406 287.479614,295.276428 284.315430,292.796356 &#10;&#9;C280.262817,289.619965 280.528351,285.281219 281.965790,280.960785 &#10;&#9;C284.342194,273.818207 288.913605,268.035126 294.295502,263.010376 &#10;&#9;C297.660309,259.868896 297.318237,257.618683 294.066315,254.972916 &#10;&#9;C291.624786,252.986465 289.307556,250.847260 286.812836,248.669449 &#10;&#9;C282.051483,251.590210 278.479736,256.356110 272.429138,256.299622 &#10;&#9;C265.742462,256.237183 263.156128,251.333435 260.382477,245.315948 &#10;&#9;C258.646088,248.300964 257.337494,250.665527 255.921143,252.963684 &#10;&#9;C251.795258,259.658295 248.523682,259.802856 244.218170,253.527084 &#10;&#9;C244.061844,253.563492 243.844009,253.545990 243.758072,253.644073 &#10;&#9;C240.315338,257.573364 236.745346,262.251862 230.840408,259.795929 &#10;&#9;C225.048035,257.386810 224.416885,251.339066 223.735229,245.841751 &#10;&#9;C223.474197,243.736572 223.692719,241.571915 223.692719,238.672073 &#10;&#9;C220.649796,240.225037 220.013260,242.746246 218.782623,244.699615 &#10;&#9;C217.097580,247.374298 215.730133,250.252945 213.992111,252.889618 &#10;&#9;C210.008789,258.932526 207.313538,258.777100 203.277969,251.283920 &#10;&#9;C200.181656,254.809448 197.653366,258.416016 194.426376,261.217834 &#10;&#9;C186.636627,267.981262 178.712311,265.542114 175.625397,255.694305 &#10;&#9;C173.204117,247.970062 173.887558,240.229828 175.945831,232.575760 &#10;&#9;C176.585327,230.197662 177.564850,227.283783 180.822601,227.989502 &#10;&#9;C184.306046,228.744110 183.420746,231.832520 182.949463,234.180283 &#10;&#9;C181.600739,240.899292 180.268311,247.582275 182.329010,254.391922 &#10;&#9;C183.779709,259.185944 186.480179,260.417084 190.457932,257.258209 &#10;&#9;C197.629074,251.563293 204.522446,245.498276 206.806564,235.931717 &#10;&#9;C207.502274,233.017899 208.765778,230.256363 210.554443,227.809494 &#10;&#9;C211.465179,226.563629 212.670593,225.420059 214.333893,226.243240 &#10;&#9;C215.703964,226.921280 215.846085,228.427261 215.511887,229.762344 &#10;&#9;C214.224915,234.903687 212.840332,240.020584 212.228531,245.651016 &#10;&#9;C213.568298,243.603119 214.954666,241.583893 216.235977,239.500046 &#10;&#9;C217.812256,236.936539 219.469788,234.443344 221.694107,232.388733 &#10;&#9;C222.824921,231.344193 224.111084,230.465790 225.735565,231.035522 &#10;&#9;C227.532425,231.665695 228.131943,233.185791 228.284302,234.964905 &#10;&#9;C228.610382,238.772217 229.068985,242.571671 229.267380,246.385040 &#10;&#9;C229.373520,248.425613 229.756760,250.367508 230.543839,252.199234 &#10;&#9;C232.010513,255.612579 234.188538,256.442413 236.972168,253.524780 &#10;&#9;C241.715317,248.553284 245.455246,242.842682 248.839432,236.903656 &#10;&#9;C251.087875,232.957794 253.447006,229.114487 257.467468,226.751907 &#10;&#9;C260.720154,224.840515 264.169006,224.680466 267.382812,226.847092 &#10;&#9;C269.511292,228.282043 271.244995,230.104385 269.865234,233.099564 &#10;&#9;C269.331909,233.231583 268.813782,233.539597 268.397888,233.436203 &#10;&#9;C260.295258,231.421997 258.222290,232.349396 254.431244,239.993332 &#10;&#9;C253.261536,242.351822 252.202881,244.785583 251.823898,248.566833 &#10;&#9;C254.557358,243.870316 256.721252,240.030167 259.014191,236.268677 &#10;&#9;C260.031189,234.600357 261.102325,232.419586 263.542389,233.178757 &#10;&#9;C265.769470,233.871658 265.957581,236.165894 266.144501,238.172043 &#10;&#9;C266.405548,240.973648 266.079132,243.827118 267.276215,246.528580 &#10;&#9;C269.122589,250.695282 272.282684,252.013016 276.099976,249.606094 &#10;&#9;C280.063324,247.107086 283.586914,244.130234 284.776276,239.128326 &#10;&#9;C285.801697,234.816208 288.632477,231.770935 292.756134,230.145233 &#10;&#9;C294.644958,229.400589 296.882446,229.033127 297.947540,231.428207 &#10;&#9;C298.862122,233.484818 297.566833,234.540222 295.767517,235.690048 &#10;&#9;C290.117767,239.300430 289.941559,242.243607 295.301117,246.361588 &#10;&#9;C298.180115,248.573639 300.001617,252.951370 303.554413,253.080826 &#10;&#9;C306.862152,253.201324 308.973663,248.789780 312.198547,247.569733 &#10;&#9;C322.683105,243.603165 323.157959,234.688431 323.592957,225.634415 &#10;&#9;C323.946747,218.271378 326.064362,211.240219 327.776550,204.142288 &#10;&#9;C328.299072,201.976135 328.799835,198.939224 331.949280,199.611450 &#10;&#9;C335.095001,200.282867 334.346680,203.252594 333.915833,205.449493 &#10;&#9;C330.867584,220.992874 329.079926,236.657578 329.055664,252.508759 &#10;&#9;C329.048828,256.985229 329.054626,261.461700 329.515167,266.041656 &#10;&#9;C332.988098,258.690247 335.599579,251.049179 339.712280,244.103775 &#10;&#9;C341.576630,240.955383 343.226898,236.549973 347.463623,237.480820 &#10;&#9;C351.915466,238.458969 350.686340,243.379852 351.239502,246.814758 &#10;&#9;C351.848175,250.594101 350.077698,254.799622 353.411133,258.598145 &#10;&#9;C358.672424,254.174866 362.452484,249.154160 363.755981,242.523651 &#10;&#9;C365.042053,235.981583 368.191071,230.690552 373.996674,227.260513 &#10;&#9;C376.653931,225.690567 379.806366,224.517578 382.295563,227.154007 &#10;&#9;C384.957520,229.973389 383.417480,233.090805 381.621765,235.823822 &#10;&#9;C379.655487,238.816544 376.915771,240.988907 373.668030,242.467392 &#10;&#9;C371.359467,243.518311 369.500549,244.811829 370.408051,247.737808 &#10;&#9;C371.422760,251.009598 373.982056,252.131668 377.067566,251.605438 &#10;&#9;C382.146698,250.739182 386.220825,247.798752 390.357788,244.337585 &#10;M290.072937,287.294281 &#10;&#9;C296.641663,281.763245 298.978882,274.511993 299.648804,265.042572 &#10;&#9;C293.135895,270.895905 288.643463,276.369598 286.739197,283.514343 &#10;&#9;C286.223633,285.448700 284.979340,288.698914 290.072937,287.294281 &#10;z" stroke="none" opacity="1.000000" fill="#000000"/>
<path d="M152.934906,284.692780 &#10;&#9;C151.416306,259.774261 145.297165,236.968887 128.807388,217.972122 &#10;&#9;C119.635727,207.406067 107.627686,200.303696 96.621414,191.983063 &#10;&#9;C95.427223,191.080276 94.128075,190.286057 93.058739,189.253815 &#10;&#9;C89.184364,185.513947 89.293678,181.571304 93.519142,178.214081 &#10;&#9;C98.834305,173.991074 105.264870,172.012634 111.566063,169.915771 &#10;&#9;C130.709549,163.545364 150.454559,159.921463 170.336624,156.681229 &#10;&#9;C185.304840,154.241806 199.908661,156.344574 214.593292,158.205124 &#10;&#9;C221.004501,159.017426 227.340332,160.479507 233.673294,161.821564 &#10;&#9;C235.595795,162.228973 237.443222,163.119888 239.234009,163.979126 &#10;&#9;C240.689255,164.677383 241.626846,165.940140 241.033340,167.642807 &#10;&#9;C240.368896,169.549072 238.723511,169.315170 237.253189,168.899521 &#10;&#9;C230.358215,166.950348 223.331589,165.590866 216.239899,164.752380 &#10;&#9;C205.537170,163.486954 194.878479,161.310654 183.978928,162.922440 &#10;&#9;C181.071304,163.352417 179.687820,164.417480 179.133698,167.449936 &#10;&#9;C174.538391,192.597275 169.593597,217.680298 166.249939,243.043823 &#10;&#9;C163.882355,261.003357 161.634521,278.972534 160.078293,297.023773 &#10;&#9;C159.965683,298.329895 159.494904,299.605164 159.094925,301.300537 &#10;&#9;C157.179794,300.722992 155.353226,301.403900 153.314911,301.577881 &#10;&#9;C151.592957,295.970581 154.550049,290.485779 152.934906,284.692780 &#10;M158.708878,242.467697 &#10;&#9;C161.857880,218.102982 165.527740,193.826111 170.828415,169.819199 &#10;&#9;C172.004959,164.490601 171.182175,163.432846 165.791931,164.444351 &#10;&#9;C144.878632,168.368912 124.064835,172.755112 103.963898,179.924789 &#10;&#9;C101.221497,180.902954 98.198441,181.654480 95.831482,185.614746 &#10;&#9;C125.591286,204.093414 150.422073,226.725098 156.040131,263.994415 &#10;&#9;C156.915512,257.116058 157.790894,250.237671 158.708878,242.467697 &#10;z" stroke="none" opacity="1.000000" fill="#000000"/>
<path d="M173.545364,146.504669 &#10;&#9;C245.333679,93.151657 348.154877,129.612869 369.897736,215.824921 &#10;&#9;C371.984436,224.098785 371.694397,224.822678 364.408478,229.452576 &#10;&#9;C362.477753,227.300064 362.896240,224.457764 362.245270,221.944153 &#10;&#9;C349.709808,173.538956 319.221069,143.190033 270.358795,132.567978 &#10;&#9;C240.812210,126.144920 212.847580,132.130127 187.042542,147.900192 &#10;&#9;C183.930511,149.802017 181.122421,152.226761 176.984528,150.582855 &#10;&#9;C175.579742,150.024780 174.144943,151.250259 172.846237,151.985458 &#10;&#9;C171.070679,152.990646 169.280167,153.771027 166.957611,152.665344 &#10;&#9;C168.000763,149.478683 171.171768,148.638718 173.545364,146.504669 &#10;z" stroke="none" opacity="1.000000" fill="#000000"/>
<path d="M123.666428,235.162308 &#10;&#9;C124.101471,230.427292 124.258514,226.110947 126.352242,221.718582 &#10;&#9;C130.212204,225.766220 132.914780,229.454285 132.466751,235.405426 &#10;&#9;C130.692795,258.969452 134.664627,281.511108 146.122330,302.418976 &#10;&#9;C147.993759,305.833954 145.688873,306.745636 143.589447,308.135986 &#10;&#9;C141.112518,309.776306 139.699463,308.762726 138.453995,306.482666 &#10;&#9;C131.359207,293.494354 126.963631,279.641052 124.626526,265.045715 &#10;&#9;C123.059334,255.258499 123.926872,245.441803 123.666428,235.162308 &#10;z" stroke="none" opacity="1.000000" fill="#000000"/>
<path d="M353.819946,296.851868 &#10;&#9;C358.740570,286.187836 362.011200,275.425354 363.818420,264.190918 &#10;&#9;C364.182343,261.928680 364.349731,258.712708 368.022675,259.361237 &#10;&#9;C371.165894,259.916229 373.171631,261.174316 372.518005,265.403564 &#10;&#9;C370.281738,279.873627 365.490692,293.387421 358.715149,306.290436 &#10;&#9;C357.405426,308.784607 355.909027,309.276245 353.560211,307.760864 &#10;&#9;C351.420502,306.380402 348.951935,305.307037 351.102234,302.045563 &#10;&#9;C352.104370,300.525604 352.825500,298.820312 353.819946,296.851868 &#10;z" stroke="none" opacity="1.000000" fill="#000000"/>
<path d="M182.678833,350.677734 &#10;&#9;C183.834396,348.634064 184.785324,346.884521 185.810211,345.179413 &#10;&#9;C186.398468,344.200745 186.985168,343.049652 188.462128,343.451813 &#10;&#9;C189.767899,343.807404 190.148666,344.853363 190.342087,346.087860 &#10;&#9;C190.724823,348.530731 191.202896,350.958679 191.707733,353.760010 &#10;&#9;C193.557907,352.864746 194.054733,351.041656 195.037201,349.664154 &#10;&#9;C195.755432,348.657074 196.545517,347.757904 197.871490,348.679413 &#10;&#9;C198.888916,349.386475 198.725296,350.409943 198.219360,351.335327 &#10;&#9;C196.549240,354.390045 194.992050,357.524261 193.084274,360.425964 &#10;&#9;C191.431625,362.939636 189.634369,362.280884 188.917313,359.687347 &#10;&#9;C188.131531,356.845276 187.863968,353.859924 187.291504,350.468597 &#10;&#9;C186.289764,352.055634 185.495911,353.405853 184.608643,354.691681 &#10;&#9;C183.797043,355.867859 183.046707,357.735046 181.225021,356.574066 &#10;&#9;C179.423721,355.426117 180.787704,353.953400 181.461914,352.684845 &#10;&#9;C181.772568,352.100342 182.155182,351.554077 182.678833,350.677734 &#10;z" stroke="none" opacity="1.000000" fill="#000000"/>
<path d="M224.882568,371.288391 &#10;&#9;C223.348724,372.263123 222.029037,372.326141 220.684387,372.352814 &#10;&#9;C213.240265,372.500488 211.857834,371.022156 213.733459,363.887512 &#10;&#9;C214.458115,361.130981 213.400818,356.543671 217.579666,356.267761 &#10;&#9;C221.038818,356.039337 225.018127,357.065826 227.058807,360.736176 &#10;&#9;C229.198059,364.583893 228.515701,368.095642 224.882568,371.288391 &#10;M221.787064,360.672180 &#10;&#9;C215.209030,359.921631 218.150803,365.281128 216.523804,367.917419 &#10;&#9;C219.506317,369.313416 221.898834,369.497650 223.675476,367.042664 &#10;&#9;C225.360336,364.714478 224.612381,362.656799 221.787064,360.672180 &#10;z" stroke="none" opacity="1.000000" fill="#000000"/>
<path d="M281.218384,360.650635 &#10;&#9;C281.881714,364.101471 279.972809,367.571930 283.133759,370.189606 &#10;&#9;C279.556091,373.003235 278.167145,367.882568 275.431488,368.692108 &#10;&#9;C273.535980,369.474701 274.962280,371.997437 272.429169,373.179108 &#10;&#9;C268.629486,370.011292 269.568176,364.885712 268.326935,360.671814 &#10;&#9;C267.826660,358.973511 269.342438,358.241150 270.620514,358.004852 &#10;&#9;C274.402008,357.305725 278.550293,355.343506 281.218384,360.650635 &#10;M275.081146,365.151489 &#10;&#9;C276.882233,364.421082 278.589050,363.425842 277.051636,361.262695 &#10;&#9;C276.045776,359.847412 274.258026,360.091980 273.244843,361.357574 &#10;&#9;C271.937561,362.990479 271.882111,364.660431 275.081146,365.151489 &#10;z" stroke="none" opacity="1.000000" fill="#000000"/>
<path d="M349.092651,313.726746 &#10;&#9;C351.725494,314.844788 354.848907,313.930573 356.914948,317.456848 &#10;&#9;C350.345703,318.058899 347.873962,321.804352 348.409271,328.283783 &#10;&#9;C344.466278,324.363739 341.930328,320.063477 339.934967,315.483521 &#10;&#9;C339.218597,313.839203 340.412048,312.513214 342.313385,312.672211 &#10;&#9;C344.452515,312.851135 346.566711,313.328583 349.092651,313.726746 &#10;z" stroke="none" opacity="1.000000" fill="#000000"/>
<path d="M325.369934,336.090424 &#10;&#9;C325.238159,338.845306 326.881500,339.365356 328.741516,340.011932 &#10;&#9;C330.542572,340.638031 332.780212,340.490692 334.164856,342.611847 &#10;&#9;C331.934204,346.134186 328.745850,343.014465 326.308594,343.647827 &#10;&#9;C323.785095,345.593079 327.717529,347.711609 325.969940,349.596619 &#10;&#9;C323.675201,349.278717 315.878937,341.667969 315.653198,339.496094 &#10;&#9;C315.499237,338.014740 316.281067,337.098572 317.681213,337.539429 &#10;&#9;C318.864166,337.911896 319.855957,338.891449 321.205780,339.782867 &#10;&#9;C322.442200,337.031250 321.074738,333.236389 324.406586,331.473816 &#10;&#9;C326.228210,332.749969 325.089020,334.377441 325.369934,336.090424 &#10;z" stroke="none" opacity="1.000000" fill="#000000"/>
<path d="M150.662964,309.601685 &#10;&#9;C150.922348,308.040131 151.893097,307.391876 152.779449,308.193451 &#10;&#9;C155.669281,310.806976 158.038452,313.826965 158.952194,318.475159 &#10;&#9;C153.555359,314.454895 150.541565,318.677551 146.997208,320.881439 &#10;&#9;C145.874222,321.579712 144.593918,322.575867 143.563263,320.941589 &#10;&#9;C142.547562,319.330994 144.028305,318.571564 145.060349,317.788696 &#10;&#9;C146.518799,316.682373 147.970291,315.553009 149.517441,314.581024 &#10;&#9;C151.459824,313.360779 151.702988,311.831818 150.662964,309.601685 &#10;z" stroke="none" opacity="1.000000" fill="#000000"/>
<path d="M181.637451,213.992737 &#10;&#9;C181.201828,212.863144 180.818512,212.076294 180.788284,211.276108 &#10;&#9;C180.694275,208.787201 181.400497,206.574463 183.894531,205.544495 &#10;&#9;C186.089600,204.637955 187.329208,206.130753 188.270996,207.805573 &#10;&#9;C189.511948,210.012421 189.774612,212.352310 187.942291,214.303864 &#10;&#9;C186.059082,216.309570 183.890823,216.414703 181.637451,213.992737 &#10;z" stroke="none" opacity="1.000000" fill="#000000"/>
<path d="M172.047165,333.176941 &#10;&#9;C169.526123,336.013214 167.220642,338.590515 164.838684,341.095123 &#10;&#9;C163.919891,342.061188 162.767456,343.037109 161.467300,341.720337 &#10;&#9;C160.388687,340.627930 161.196442,339.549438 161.958649,338.680847 &#10;&#9;C164.238037,336.083344 166.391998,333.331696 168.951080,331.037445 &#10;&#9;C171.033691,329.170319 172.718262,329.463562 172.047165,333.176941 &#10;z" stroke="none" opacity="1.000000" fill="#000000"/>
<path d="M302.665833,362.210571 &#10;&#9;C300.483246,357.981934 297.974457,354.255859 297.200623,349.978638 &#10;&#9;C298.157715,348.800110 299.286377,348.538696 299.955994,349.424377 &#10;&#9;C302.464966,352.742828 304.189270,356.535614 305.494293,360.444916 &#10;&#9;C306.116150,362.307770 304.897980,363.205353 302.665833,362.210571 &#10;z" stroke="none" opacity="1.000000" fill="#000000"/>
<path d="M246.691971,363.367828 &#10;&#9;C246.854630,361.781860 246.867828,360.430786 248.488663,360.483032 &#10;&#9;C249.387543,360.511993 249.996658,361.337402 250.009247,362.200165 &#10;&#9;C250.064865,366.014435 250.071487,369.831573 249.974472,373.644562 &#10;&#9;C249.947327,374.711548 249.199921,375.545074 248.016220,375.457214 &#10;&#9;C246.733139,375.362000 246.525620,374.302734 246.533127,373.269257 &#10;&#9;C246.556015,370.114044 246.625519,366.959137 246.691971,363.367828 &#10;z" stroke="none" opacity="1.000000" fill="#000000"/>
<path d="M155.081421,177.076843 &#10;&#9;C146.786179,187.873016 141.429153,199.826630 136.831955,212.184464 &#10;&#9;C130.287720,208.668579 129.528824,206.628876 132.080856,200.211670 &#10;&#9;C135.166351,192.453033 139.473846,185.358337 143.553360,178.103806 &#10;&#9;C147.127594,171.747772 152.555817,170.539886 159.189957,169.911865 &#10;&#9;C159.066116,173.169189 156.558929,174.646622 155.081421,177.076843 &#10;z" stroke="none" opacity="1.000000" fill="#000000"/>
</svg>